<svg xmlns="http://www.w3.org/2000/svg" viewBox="0 0 600 420" width="600" height="420" role="img">
<rect width="600" height="420" fill="#0a222a"/>
<rect x="0" y="0" width="600" height="34" fill="#123039"/><circle cx="20" cy="17" r="5" fill="#f2a65a" opacity=".8"/><circle cx="38" cy="17" r="5" fill="#5fd3b2" opacity=".6"/><circle cx="56" cy="17" r="5" fill="#90aaab" opacity=".4"/><rect x="76" y="9" width="440" height="16" rx="8" fill="#0a222a" opacity=".7"/><text x="90" y="21" font-family="monospace" font-size="10" fill="#90aaab">trailhead — day 2</text><line x1="0" y1="34" x2="600" y2="34" stroke="#1e434e"/>
<path d="M70 360 C 150 300, 120 220, 210 200 S 350 210, 380 140 S 470 110, 520 80" fill="none" stroke="#5fd3b2" stroke-width="3" stroke-dasharray="9 8" opacity=".8"/>
<circle cx="70" cy="360" r="17" fill="#123039" stroke="#f2a65a" stroke-width="2.5"/>
<text x="70" y="365" text-anchor="middle" font-family="Arial,Helvetica,sans-serif" font-weight="bold" font-size="13" fill="#f2a65a">1</text>
<text x="96" y="365" font-family="Arial,Helvetica,sans-serif" font-size="12" fill="#90aaab">Café Mehr</text>
<circle cx="210" cy="200" r="17" fill="#123039" stroke="#f2a65a" stroke-width="2.5"/>
<text x="210" y="205" text-anchor="middle" font-family="Arial,Helvetica,sans-serif" font-weight="bold" font-size="13" fill="#f2a65a">2</text>
<text x="236" y="205" font-family="Arial,Helvetica,sans-serif" font-size="12" fill="#90aaab">Old fort</text>
<circle cx="380" cy="140" r="17" fill="#123039" stroke="#f2a65a" stroke-width="2.5"/>
<text x="380" y="145" text-anchor="middle" font-family="Arial,Helvetica,sans-serif" font-weight="bold" font-size="13" fill="#f2a65a">3</text>
<text x="406" y="145" font-family="Arial,Helvetica,sans-serif" font-size="12" fill="#90aaab">Riverfront</text>
<circle cx="520" cy="80" r="17" fill="#123039" stroke="#f2a65a" stroke-width="2.5"/>
<text x="520" y="85" text-anchor="middle" font-family="Arial,Helvetica,sans-serif" font-weight="bold" font-size="13" fill="#f2a65a">4</text>
<text x="546" y="85" font-family="Arial,Helvetica,sans-serif" font-size="12" fill="#90aaab">Night market</text>
<rect x="34" y="368" width="140" height="28" rx="14" fill="#f2a65a"/>
<text x="104" y="387" text-anchor="middle" font-family="Arial,Helvetica,sans-serif" font-weight="bold" font-size="12" fill="#0a222a">Share plan</text>
</svg>
